<svg xmlns="http://www.w3.org/2000/svg" viewBox="0 0 130.26 49.5" fill="#FFF">
    <path 
        d="m55.4 8.61 5.36-1.36v27.51H55.4zm9 26.15h5.48v-18h-5.47zm2.7-26.61a3.16 3.16 0 1 0 3.16 3.16 3.16 3.16 0 0 0-3.16-3.16M90.58 19v-6.79l-6.45 3.39zm2.31 15.9h5.36V7.3l-5.36 1.36zm12-18.78c-4.86 0-5.71 2.91-6 3.49v.59a4.07 4.07 0 0 1 3.36-1.6 2.91 2.91 0 0 1 3.15 3.19V34.9h5.41V22.22c0-1.45-.18-6.12-6-6.12m20.66 15.76s-2.8 2.07-4.72.24a5.09 5.09 0 0 1-1-3.43V17.35h5.41l-.3-.63h-5.11v-5.41l-5.36 1.35v4.08H112l.3.63h2.23v12c0 2.34.57 5.86 5.41 5.86s6-3 6-3zm-94.54.24a5 5 0 0 1-1-3.43V17.35h4.84l-.3-.61h-4.38v-5.43l-5.48 1.35v4.08H22.2l.31.61h2.1v12c0 2.34.63 5.86 5.46 5.86s6-3 6-3l-.31-.34s-2.79 2.07-4.71.24M73 22.59c0-3.49 3.43-6.31 7.66-6.31s7.67 2.82 7.67 6.31-3.43 6.31-7.67 6.31S73 26.08 73 22.59m5.69 0a25.86 25.86 0 0 0 .18 3.78 1.8 1.8 0 0 0 3.59 0 25.86 25.86 0 0 0 .18-3.78 25.79 25.79 0 0 0-.18-3.78 1.8 1.8 0 0 0-3.59 0 25.79 25.79 0 0 0-.18 3.78m11.89 15.1c0 3.57-2.5 6.56-9.73 6.56-6.25 0-9.21-2.19-9.21-4.74A4.3 4.3 0 0 1 74.2 36a4.62 4.62 0 0 1-1.68-3.56 4.85 4.85 0 0 1 2.91-4.33l.38.24A2.06 2.06 0 0 0 74.55 30a1.57 1.57 0 0 0 1.58 1.57h8.33a6.11 6.11 0 0 1 6.1 6.1m-3.15 2.06a2.69 2.69 0 0 0-2.71-2.68h-7.55a5 5 0 0 1-1-.12 4.37 4.37 0 0 0-1 2.76c0 2.69 3.34 3.86 6.07 3.86 1.06 0 6.12-.24 6.12-3.82m-51.88-23 8.64 18.86 3.54-6.71-5.79-12.14zm15.11 6.45L54 16.74h-6.74zM39.58 37a3.16 3.16 0 1 0 3.15 3.16A3.16 3.16 0 0 0 39.58 37M4.77 35.24h6.37L4.77 29.8zm14.69-13-8.63-8.09a3.35 3.35 0 0 1-1.05-2.31 3.46 3.46 0 0 1 3.61-3.28h.27V8.1h-1.17c-4.49 0-8.15 3-8.15 6.77a6.21 6.21 0 0 0 1.77 4.26l8.7 8.13a4.55 4.55 0 0 1 1.27 3.17 4.14 4.14 0 0 1-3.93 4.33h-.32v.48h1.34c4.83 0 8.83-3.42 8.83-7.63a7.13 7.13 0 0 0-2.5-5.34M20.59 8.1H14.3l6.29 5.47z">
    </path>
</svg>